<?xml version="1.0" standalone="no"?>
<!DOCTYPE svg PUBLIC "-//W3C//DTD SVG 20010904//EN"
 "http://www.w3.org/TR/2001/REC-SVG-20010904/DTD/svg10.dtd">
<svg version="1.0" xmlns="http://www.w3.org/2000/svg"
 width="1200.000000pt" height="1200.000000pt" viewBox="0 0 1200.000000 1200.000000"
 preserveAspectRatio="xMidYMid meet">
<metadata>
Created by potrace 1.15, written by Peter Selinger 2001-2017
</metadata>
<g transform="translate(0.000000,1200.000000) scale(0.100000,-0.100000)"
fill="#000000" stroke="none">
<path d="M2540 7485 c-153 -26 -316 -77 -438 -139 -420 -212 -717 -608 -808
-1076 -28 -142 -25 -418 5 -560 100 -473 386 -846 806 -1054 225 -111 417
-156 668 -156 156 0 263 14 411 54 542 148 966 616 1072 1186 27 141 25 390
-4 537 -60 302 -202 571 -412 782 -228 228 -502 368 -833 426 -101 18 -361 18
-467 0z m470 -161 c47 -8 131 -30 186 -49 467 -155 804 -539 901 -1025 24
-119 24 -384 0 -502 -106 -525 -500 -935 -1019 -1058 -115 -27 -310 -41 -423
-30 -308 29 -588 157 -809 370 -263 254 -399 558 -413 925 -13 373 113 704
372 974 231 240 538 387 860 409 127 9 238 5 345 -14z"/>
<path d="M2659 6727 c-19 -12 -43 -39 -54 -59 -16 -31 -25 -37 -63 -41 -50 -5
-87 -29 -119 -77 -22 -32 -23 -41 -23 -273 l0 -239 -36 32 c-46 40 -73 50
-136 50 -46 0 -54 -4 -94 -44 -44 -44 -50 -62 -45 -131 3 -33 22 -66 195 -349
l116 -190 0 -78 0 -78 440 0 440 0 -2 574 c-3 565 -3 575 -24 603 -32 43 -82
73 -124 73 -37 0 -37 0 -43 46 -9 86 -69 139 -155 139 -44 0 -60 4 -71 19 -36
48 -146 61 -202 23z m109 -420 l2 -307 65 0 65 0 0 264 c0 230 2 267 16 281
12 12 19 13 30 4 11 -9 14 -63 14 -280 l0 -269 65 0 65 0 0 174 c0 147 2 176
16 187 14 11 18 10 30 -6 12 -15 14 -104 14 -497 l0 -478 -310 0 -310 0 0 31
c0 17 -5 40 -11 52 -23 43 -262 433 -286 465 -27 35 -25 62 4 62 10 0 59 -40
108 -90 94 -94 119 -106 161 -76 18 14 19 32 24 338 l5 323 23 3 22 3 0 -245
0 -246 70 0 70 0 0 303 c0 167 3 307 7 311 4 4 14 5 23 4 13 -3 15 -42 18
-311z"/>
<path d="M2778 5871 c-28 -24 -37 -27 -58 -19 -36 13 -94 -6 -115 -39 -22 -33
-22 -76 0 -109 15 -23 15 -26 -5 -51 -27 -35 -25 -75 6 -113 24 -28 32 -31 75
-29 41 2 52 -1 72 -23 63 -68 176 -26 177 65 1 16 12 28 43 42 32 15 44 28 51
53 12 44 -11 94 -53 112 -25 10 -31 18 -31 42 0 91 -92 131 -162 69z m71 -105
c57 -30 68 -110 22 -157 -41 -40 -98 -41 -143 0 -89 80 13 212 121 157z"/>
<path d="M4910 5990 l0 -480 65 0 65 0 0 163 0 163 58 57 57 57 70 -92 c39
-51 114 -150 168 -220 l98 -128 81 0 c63 0 78 3 71 13 -105 134 -393 518 -393
523 0 5 235 273 349 397 l25 27 -85 -1 -84 0 -205 -230 -205 -229 -3 230 -2
230 -65 0 -65 0 0 -480z"/>
<path d="M5720 6466 c0 -3 74 -141 165 -306 l165 -300 0 -175 0 -175 65 0 65
0 0 177 0 177 154 281 c84 154 159 290 165 303 12 22 11 22 -63 22 l-75 0 -67
-127 c-37 -71 -92 -177 -124 -237 l-57 -108 -120 233 -120 234 -77 3 c-42 2
-76 0 -76 -2z"/>
<path d="M6690 5990 l0 -480 65 0 65 0 0 220 0 220 240 0 240 0 0 -220 0 -220
65 0 65 0 0 480 0 480 -65 0 -65 0 0 -205 0 -205 -240 0 -240 0 0 205 0 205
-65 0 -65 0 0 -480z"/>
</g>
</svg>
